<?xml version="1.0" encoding="UTF-8"?>
<svg id="Calque_1" xmlns="http://www.w3.org/2000/svg" version="1.1" viewBox="0 0 32 32">
  <!-- Generator: Adobe Illustrator 29.2.1, SVG Export Plug-In . SVG Version: 2.1.0 Build 116)  -->
  <defs>
    <style>
      .st0 {
        fill: #fff;
      }

      .st1, .st2 {
        font-family: Outfit-Bold, Outfit;
        font-size: 3.8px;
        font-weight: 700;
      }

      .st3, .st2 {
        fill: #eab308;
      }

      .st4 {
        fill: #111827;
      }
    </style>
  </defs>
  <circle class="st0" cx="16" cy="16" r="16"/>
  <g>
    <g>
      <text class="st1" transform="translate(12.69 15.4)"><tspan x="0" y="0">Commerz</tspan></text>
      <text class="st2" transform="translate(12.81 19.31)"><tspan x="0" y="0">Finance</tspan></text>
    </g>
    <g>
      <path class="st4" d="M8.34,17.05c.14-.13.34-.25.54-.3.02-.02.05-.03.07-.05l.28-.17s.04,0,.05-.02l.33-.09s.04-.02.03.02c.16.08.24-.01.24-.19.13-.22.25-.45.35-.69.07-.17.13-.35.11-.53,0-.14,0-.29-.05-.43l.04-.04c.04-.12.07-.09.14-.01.02-.12.14-.08.18,0,.06.05.06.17-.04.16-.06.12-.11.23.07.24l.04.1c-.03.06-.05.16.02.15,0-.09.07-.08.09,0,.03,0,.03.03.02.05.02,0,.04.01.06.02.01,0,.24.19.25.2.08.1.09.47-.09.38-.22-.3,0,.15.09.24l-.07.29.09.03c-.11.64-.34,1.27-.72,1.8h-.09c-.11.2-.22.4-.32.59,0,.01-.01.02-.02.03-.13.07-.25.15-.37.25-.22.21-.51.48-.8.52-.06.04-.09.04-.09,0-.02-.04-.06-.05-.1-.06-.05.03-.08,0-.09-.1l-.05.02c-.09.06-.1,0-.09-.09-.04,0-.05-.03-.02-.05-.03-.14.15-.32.3-.25-.1-.12-.11-.16,0-.28l-.02-.03c.23-.28.38-.46.53-.79.17-.08.11-.45-.04-.58h-.18c-.27.1-.15-.39-.15-.36.03.31-.2.59-.5.35-.07.09-.13.05-.1-.06,0-.06-.02-.11-.07-.13-.08,0-.06-.07,0-.09,0-.06.09-.09.15-.1Z"/>
      <path class="st3" d="M3.02,13.63l.23-.33c0-.1.14-.29.23-.33h.04c.04.1.07.23.08.35.04,0,.04.03.02.05.02.15.06.29.12.44l.08.27c.1.34.19.66.29.95.04,0,.04.03.02.05.04.05-.04.09-.09.09-.05.04-.11.06-.18.08-.33.3-.43.78-.49,1.2l-.02.17c.09.19-.02.3-.12.07l-.41-1.49c-.02-.13-.07-.23-.14-.3-.04-.03-.06-.07-.07-.13-.03-.09.02-.36.13-.39.04,0,.05-.02.02-.03-.05.03-.06,0-.03-.11.03-.11.07-.19.14-.24.02-.09.05-.18.1-.26-.02-.04.02-.09.06-.1Z"/>
      <path class="st3" d="M3.7,12.76c.78-.24.81-.24.07-.02l-.03-.05c.13-.18.3-.33.49-.46.14-.12.18-.14.32-.24.08-.03.1-.02.07.04.1-.05.12-.01.05.07,0,.16.04.31.12.44q.01.13,0,0c-.09-.08-.06-.12.06-.1.11-.05.21-.07.31-.06.29-.13.11.12-.05.23l-.25.3c-.18.22-.35.45-.45.71l-.05.02c-.28.17-.19.72.16.61.24.29.31.25.58,0l.1.03c.13,0,.14.2.04.25-.12.14-.42.33-.61.35-.06.04-.12.08-.17.14-.02,0-.04.04-.07.05-.1.03-.18.03-.23,0,0-.02-.01-.04-.02-.05-.1-.3-.2-.62-.29-.95l-.08-.27c-.06-.14-.1-.29-.12-.44,0-.02-.01-.04-.02-.05-.04-.14-.06-.27-.05-.4-.04-.06.06-.16.13-.16Z"/>
      <path class="st4" d="M8.6,12.26c.42.07.9.3,1.23.6.21.17.4.36.56.57l-.03.05-.02.09c.08.21.06.31-.06.29-.15-.05.02.21.12.11-.04-.1,0-.11.07-.05.07-.04.08.04.07.04-.05-.02-.03-.16.07-.17.06,0,.21.19.12.24.04.09.05.15.03.2-.06.03-.11.1-.14.2-.07.04-.12.09-.15.14-.04,0-.1.03-.14.01h-.05c-.07-.21-.14-.44-.22-.66-.09-.12-.18-.26-.23-.41.02-.03.02-.05-.02-.05-.08-.08-.15-.17-.22-.26.02-.07,0-.12-.07-.13-.23-.17-.45-.36-.66-.56-.02.02-.06,0-.07-.04-.13-.07-.21-.15-.24-.23.01,0,.02.02.03.02Z"/>
      <path class="st3" d="M2.6,14.78c.16.05.06.11.07.13.03.02.06.04.07.06.19.49.35,1.14.47,1.66,0,.02-.01.05-.03.09-.03.08-.12.13-.2.12-.1.09-.18-.07-.1-.15.03-.05.03-.07-.02-.05,0,.11-.03.16-.08.14-.03.02-.04.02-.03-.02-.04.08-.09.08-.14.01-.07,0-.08-.15-.06-.22q.15-.02,0,0s-.04-.03-.05-.07c-.09-.56-.13-.86.02-1.42l.02-.03c.05,0,.06-.02.02-.03-.02-.07,0-.17.06-.19Z"/>
      <path class="st4" d="M10.85,15.29c-.03-.29.32-.22.26.04h.08c.21,1.27-.3,2.59-1.15,3.51,0-.01,0-.18.08-.23l-.08-.02c.11-.05.28-.45.3-.45.02,0,.09.08.12.04.09-.1.33-.56.39-.7.09-.21.19-.6.25-.8.02-.06,0-.14.04-.21l-.09.09c-.14.05.01-.38.06-.43h-.18c.15-.2-.02-.2-.08-.36.13-.12.23-.07.27.09.22-.28-.18-.34-.26-.44-.03-.04-.01-.09-.02-.13Z"/>
      <path class="st3" d="M3.78,18.58c-.08-.09-.31-1-.27-1.04.01-.01.04-.02.07-.02.07.19.15.35.26.48.28.35.58.74.96,1l.05.07c.06.03.09.14.04.17-.12.06-1.06-.49-1.13-.63,0,0,.01-.03.04-.05Z"/>
      <path class="st4" d="M9.16,17.47s-.02-.04.02-.03c.06.05.15.1.18.17,0,.02.02.36.02.38-.04.12-.11.04-.13.06-.04.06-.04.19-.12.3-.09.13-.25.12-.19.33-.16-.13-.14.05-.22.15-.04.04-.05.08-.02.13-.18.17-.39.31-.59.45.12.15.15.29.09.42.04.02.07.07.04.07-.08,0,.04-.16.08.04-.18.06-.36.1-.55.15l-.03-.02s-.06-.05-.1-.06c-.12-.01-.27-.14-.33-.23.63-.31,1.22-.74,1.62-1.33.13-.19.52-.8.24-.99Z"/>
      <path class="st3" d="M2.67,14.91c.1-.01.1.02.13.1.21.48.26,1.19.47,1.67,0,.02.05.09.06.09.09-.03-.02-.1-.01-.13,0-.05.04-.11.05-.17.03.56.21,1.06.46,1.55,0,0-.05.01-.08-.02-.05-.07-.1-.26-.14-.34-.03-.06-.04-.09-.07,0,.12.28.13.68.25.95-.06.1-.18-.03-.09-.09-.06-.02-.13-.07-.07-.13-.03-.03-.04-.07-.03-.11-.11-.01-.13-.09-.05-.16l-.1-.36c-.11-.26-.15-.5-.18-.77-.07.04-.08,0-.05-.07-.07-.04-.09-.09-.05-.16-.11-.6-.36-1.21-.5-1.81Z"/>
      <path class="st4" d="M7.73,17.31c.02-.1.25-.15.35-.13.04,0,.07.01.1.06.18-.08.24.03.07.13-.02.1.02.11.1.06.03-.04.15-.05.2-.07-.05.11.07.14.14.08.04-.03.01-.11.03-.16.01-.04.07-.07.07-.11,0-.05-.06-.1-.02-.17,0-.01.18,0,.22-.13.1.12.16.25.19.4-.13.07-.08-.09-.14-.14-.16-.12-.25.13.04.15l-.22.06s.09.06.14.08c-.03.03-.66.22-.73.23-.12.05-.21.05-.27-.01-.06-.11-.15-.19-.26-.25v-.09Z"/>
      <path class="st3" d="M2.57,16.79c.06,0,.11-.03.16-.05l.03.02c.12,0,.16.17.1.27-.02.04.3.17.31.13-.05-.1-.04-.2.08-.21.07.13.24.76.28.94.01.06.02.13,0,.19-.06.05-.09.04-.13-.02-.03-.27-.17-.42-.41-.45,0-.11-.07-.17-.2-.18l-.03-.02c-.11-.23-.16-.35-.22-.59l.02-.03Z"/>
      <path class="st4" d="M7.72,19.29c.09,0,.08.06,0,.09-.15.1-.37.24-.56.28-.1.02-.53.03-.5-.12.06-.3.8-.21,1.06-.25Z"/>
      <path class="st3" d="M5.5,12.59c.12,0,.15-.03.09-.09.2-.12.46-.15.7-.08.35.1,0,.3-.2.34-.09.02-.63.01-.71,0-.16-.04.11-.16.12-.16Z"/>
      <path class="st4" d="M8.24,18.85c.06.03.02.1-.12.21-.11.03-.18.06-.26.13-.15.01-.78,0-.59-.25.13-.17.74-.07.97-.09Z"/>
      <path class="st4" d="M10.61,14.74s.09.04.07.08c-.02.06-.09-.01-.07-.08.05-.08.04-.14.04-.16-.08-.09.02-.16.11-.12.06-.18.21.03.07.15.09.02.12.04.09.13.18.03.2.16.22.35.04.13.02.15.04.25-.03.11-.12.04-.16,0s.1-.1,0-.15c-.1-.04-.13.02-.17.09,0-.02-.01-.04-.02-.05-.03-.04-.06-.04-.09,0-.01.03-.05.13-.09.09.03-.16,0-.38-.2-.39.05-.05.12-.14.15-.19Z"/>
      <path class="st3" d="M6.56,12.26h-.41s-.07,0-.09,0c-.11.02-.12.01-.05-.07.32-.16.44-.36.85-.27s-.09.32-.3.35Z"/>
      <path class="st3" d="M2.92,17.64c.1.02.19.04.28.07.11.19.23.42.29.62l.2.16s0,.11.09.09c.1.24.25.23.43.33.07.04.11.11.19.16.11.06.29.08.41.18l.03-.16c.1.03.21.08.28.16.07.06.17.14.04.13l-.26-.07c-.94-.31-1.5-.78-1.99-1.63-.01-.02,0-.03.02-.03Z"/>
      <path class="st3" d="M5.67,12.87c.09,0,.15.01.19.06.04.25-.68.28-.84.22-.08-.03-.04-.06,0-.11.21-.27.36-.2.65-.17Z"/>
      <path class="st3" d="M5.22,14.55c0-.13.24-.28.33-.18.02-.07.27-.22.33-.09l.05-.08s.26.03.17-.04c-.17-.13-.31-.17-.49-.22.24-.04.14.25,0,.09-.12.03-.1-.07,0-.09-.03.1-.06.1-.09,0-.09.12-.25.19-.18,0,.32-.09.68-.19.88.18.17.3-.47.28-.69.37-.28.12-.62.33-.92.48-.08.02-.08-.01-.02-.05.22-.05.45-.26.61-.35Z"/>
      <path class="st4" d="M9.93,12.92c.31.24.73.71.89,1.07.03.07.06.11.02.19-.07,0-.1-.08-.1-.15-.02-.03,0-.15-.14-.17l-.04.16c-.05-.02-.06-.05-.09-.09-.02,0-.04,0-.06,0-.02,0-.12-.4-.06-.43-.12-.28-.35-.38-.53-.62.04,0,.07.02.1.06Z"/>
      <path class="st3" d="M5,14.05c.15-.07.19-.08.35-.13l.08.09s.05-.07.09-.08c.12.15-.31.32-.45.31-.04.08-.19.22-.27.22s-.35-.21-.24-.3v-.05c.16,0,.31,0,.44-.07Z"/>
      <path class="st3" d="M6.72,11.25s-.08.14-.15.1c-.03.02-.04.02-.03-.02-.05.11-.08.15-.16.05-.01.14-.31.24-.4.14-.01.09-.04.06-.09,0-.03.11-.08.13-.16.05l-.06.1c-.33.11-.66.24-.96.41l-.08-.03s-.05-.02-.07-.04c.59-.4,1.3-.58,1.99-.74.07-.02.12-.05.19,0Z"/>
      <path class="st4" d="M8.16,18.43c.16-.03.34-.04.5,0-.15.3-.24.31-.54.3-.19-.01-.1-.25.03-.3Z"/>
      <path class="st3" d="M6.72,11.25c.12-.06.4-.14.41.08.01.25-.57.38-.76.46l.02-.03c-.11-.12.27-.29.35-.22.12-.1.05-.17-.09-.09,0,.19-.21.1-.09-.09.03-.06.1-.07.15-.1Z"/>
      <path class="st4" d="M8.27,17.66c-.23.21-.97-.08-.9-.36.04-.14.17-.06.25-.07.18-.03.53-.12.68-.2.02-.01.03,0,.03.02-.05.03-.1.08-.15.1-.02.07-.07.1-.11.03-.1.04-.24.07-.35.13-.09,0-.2.16-.09.05.16.03.29.15.36.28.05,0,.23.02.27.01Z"/>
      <path class="st3" d="M4.23,12.23c-.16.14-.34.3-.49.46.06.05.04.08-.04.07-.06.06-.08.1-.13.16.03.09,0,.1-.07.05-.1.12-.15.19-.23.33l-.23.33s-.04.07-.06.1c-.05.08-.09.17-.1.26-.04.08-.1.16-.14.24l-.02.03c.24-.81.82-1.59,1.53-2.05Z"/>
      <path class="st4" d="M10.74,14.02c.04.05.07.1.1.15s.06.07.1.15c.02.09.05.17.1.24.01.03.02.07.03.11.03.13-.04.14-.13.07-.01,0-.05-.04-.08-.04-.04,0-.07.05-.08.05-.19-.13.23-.28,0-.28-.11-.02-.11-.2,0-.23,0-.06-.08-.13-.03-.2Z"/>
      <path class="st3" d="M5.88,11.51l.08.05c.03.16.09.21.17.18-.1-.23-.01-.23.27.01l-.02.03c-.12.05-.24.14-.39.2-.06.02-.11.02-.14.01-.08-.09-.15-.32-.12-.44.06-.02.11-.03.16-.05Z"/>
      <path class="st3" d="M4.86,12.91c-.32.45-.93,1.4.14,1.14-.03.01-.06.06-.14.09-.11.03-.2.01-.3.04-.07.09-.16.03-.14-.08-.2.03-.13-.21-.09-.33-.07-.01-.06-.05.02-.12.15-.35.25-.46.51-.73Z"/>
      <path class="st4" d="M10.06,13.92c.07.13.12.28.19.41.02.04.09.07.09.08,0,.02-.1.07-.09.08,0,0,.07.05.09.09.06.18.12.31.01.47-.02.02-.04.01-.03-.02,0-.23-.17-.86-.27-1.08,0-.02,0-.03.02-.03Z"/>
      <path class="st3" d="M5.14,12.33l.04-.09c.21-.05.4-.15.58-.3l.08.05c.09-.05.14,0,.14-.01-.42.25-.79.57-1.13.93.13-.18.22-.35.41-.48.01-.06-.09-.03-.12-.04-.09,0-.1-.02-.02-.05Z"/>
      <path class="st4" d="M6.71,20.33c-.04-.1.11-.16.16-.08.15-.08.36-.15.52-.15.07-.07.13-.1.2-.02.04-.05.12-.08.14-.01l.03.02c-.39.12-.57.25-1.02.25l-.03-.02Z"/>
      <path class="st4" d="M8.6,12.26c.04-.12.09-.03.16,0,.43.14.87.34,1.18.67-.03-.02-.07-.04-.1-.06-.47-.33-.7-.42-1.23-.6Z"/>
      <path class="st4" d="M10.31,15.03l.03.02.07.12c-.16.43-.26.72-.53,1.1.07.2-.07.29-.24.19,0,0-.02-.01-.03-.02l-.03-.02c.07-.02.2-.06.25-.11.24-.28.49-.89.49-1.27Z"/>
      <path class="st4" d="M8.85,19.65c.07-.04.2-.03.24-.19l.05.07c.15-.17.33-.25.51-.41.02-.02.04-.01.03.02-.37.32-.51.41-.95.62-.04-.05.05-.11.11-.12Z"/>
      <path class="st4" d="M6.87,19.96c.15-.08.3-.12.42-.18.14.13.32.33,0,.29-.07-.14-.31-.12-.23.04-.04.18-.48.17-.25-.05-.03-.03-.02-.06.06-.1Z"/>
      <path class="st3" d="M2.7,14.28s.01-.02.02-.03l.03.11s.02.04-.02.03c-.09.13-.08.26-.13.39-.02.06-.05.13-.06.19.02.03.02.04-.02.03,0,.01-.02.02-.02.03,0-.26.09-.53.2-.76Z"/>
      <path class="st3" d="M4.44,15.03c0-.09-.16-.18-.17-.19-.01-.05.11-.24.17-.03.02.07-.07.14.16.09l.02.05c-.06.03-.12.05-.18.08Z"/>
      <path class="st4" d="M8.87,16.75c-.14.09-.25.14-.4.21l.11.09-.04.12c-.12-.04-.09-.22-.21-.12l-.03-.02c.14-.07.36-.34.57-.28Z"/>
      <path class="st4" d="M8.4,12.2l.4.27s.05.02.07.04c.02.03.02.04-.02.03-.21-.14-.45-.24-.66-.38-.08-.03-.1-.05-.05-.07.11.01.18.07.26.1Z"/>
      <path class="st4" d="M6.87,19.96s-.06.08-.06.1l-.02.09c-.09.04-.16.08-.09.18l.03.02c-.05,0-.25.08-.21-.1.05-.24.2-.21.34-.29Z"/>
      <path class="st3" d="M5.5,12.59s.04-.05.09-.09c.13-.02.32.13.17.19-.02,0-.18-.1-.24-.05l-.02-.05Z"/>
      <path class="st3" d="M4.78,19.01c.22.15.5.27.73.42-.03.06-.13,0-.18,0-.1-.05-.16-.09-.23-.17-.09-.05-.19-.1-.28-.16-.03-.02-.06-.04-.05-.07Z"/>
      <path class="st4" d="M10.94,14.74c.05,0,.09-.03.13-.07.04.13.14.28.09.42-.01-.05-.08-.25-.08-.26-.03-.04-.24.06-.13-.09Z"/>
      <path class="st3" d="M4.89,19.3l.25.05.02-.03-.05-.07c.08.04.21.09.23.17-.2-.03-.26-.05-.44-.11Z"/>
      <path class="st4" d="M8.52,19.51s-.01-.2.05-.2l.09.28c.07.04,0,.12-.06.1.05-.05.11-.07.16-.05.02,0,.06,0,.09,0-.04.02-.08.09-.11.12-.1.05-.15.06-.24.1l-.03-.02c-.06-.1.02-.18.13-.16-.12.1-.22-.13-.08-.18Z"/>
      <path class="st4" d="M7.99,18.47c.13-.03.05.27-.08.23-.04,0-.08.02-.12-.02.05-.16.1-.15.21-.21Z"/>
      <path class="st4" d="M8.16,18.43c-.06.1-.18.23-.03.3-.08,0-.14-.01-.21-.03.06-.07.14-.13.08-.23.07-.03.09-.03.16-.05Z"/>
      <path class="st4" d="M8.12,19.06c-.11.09-.06.11-.26.13.02-.25.24-.13.26-.13Z"/>
      <path class="st4" d="M9.53,13.06c.11,0,.1.07,0,.09-.16-.19-.46-.47-.67-.61l.02-.03c.22.17.46.35.66.56Z"/>
      <path class="st4" d="M10.02,18.88c-.05.08-.26.2-.34.27l-.03-.02s.09-.07.13-.11c.07-.07.05-.23.24-.14Z"/>
      <path class="st4" d="M9.59,13.19c.05.05.16.1.16.1,0,0,0,.08.06.16.08-.01.08.02.02.05.01.02,0,.03-.02.03-.06-.1-.21-.31-.29-.39.06-.09.09-.07.07.04Z"/>
      <path class="st4" d="M9.83,13.51c.08.14.16.27.23.41l-.02.03c-.04-.09-.18-.32-.23-.41l.02-.03Z"/>
      <path class="st4" d="M8.56,12.24l.24.23c-.12-.09-.34-.14-.4-.27.04.02.1.03.16.04Z"/>
      <path class="st3" d="M4.13,15.09c.06-.02.17-.03.23,0-.11.05-.18.07-.29.11l-.03-.02s.08-.08.09-.09Z"/>
      <path class="st4" d="M9.57,16.41l.03.02c-.11.04-.21.13-.33.09.12-.05.17-.07.29-.11Z"/>
      <path class="st3" d="M6.01,12.18l.05.07s-.17.09-.25.04c.03-.1.15-.09.2-.12Z"/>
      <path class="st3" d="M2.48,16.46s.04.05.05.07c.02.07,0,.15.06.22.02.03.02.04-.02.03l-.02.03c-.04-.16-.05-.22-.07-.36Z"/>
      <path class="st4" d="M9.22,16.54l-.28.17c.12-.08.13-.09.28-.17Z"/>
      <path class="st3" d="M2.81,17.43c.12-.04.19.1.12.2l-.02.03c-.06-.11-.08-.15-.13-.26l.03.02Z"/>
      <path class="st4" d="M8.24,18.85s.03-.05.09,0c-.03.12-.13.15-.21.21.01,0,.09-.15.13-.17l-.02-.04Z"/>
      <path class="st4" d="M7.72,19.29s.08-.08.14-.01c-.02.11-.13.09-.15.1v-.09Z"/>
      <path class="st4" d="M9,17.43s.04-.1.06-.1c0,0,.08.08.12.11l-.02.03s-.11-.02-.16-.04Z"/>
      <path class="st4" d="M11.04,14.56c-.08-.05-.1-.15-.1-.24.07.12.06.13.1.24Z"/>
      <path class="st3" d="M6.56,12.26c-.2.04-.25,0-.41,0,.11-.04.29-.02.41,0Z"/>
      <path class="st3" d="M4.04,15.18l.03.02c-.07.02-.13.08-.22.06.11-.1.13-.05.18-.08Z"/>
      <path class="st3" d="M5.86,12.93l-.19-.06c.07,0,.17-.07.19.06Z"/>
      <path class="st4" d="M8.46,19.85l.03.02c-.06.02-.1.05-.18.08-.05-.11.07-.17.15-.1Z"/>
      <path class="st4" d="M8.14,12.09s.02.06.05.07l-.16-.04s.07-.03.11-.03Z"/>
      <path class="st4" d="M9.64,16.45c.24.02.18-.1.24-.19.02.26.34-.09.39.04.02.06-.17.06-.23.09-.25.12-.14.12-.1.25.05.18.04.42.25.45l-.11.07.14.54c-.06-.02-.07-.08-.1-.14-.03-.07-.11-.26-.13-.33-.05-.16-.07-.68-.26-.74-.04-.01-.06.11-.13.02,0-.02.04-.06.04-.07Z"/>
      <path class="st4" d="M8.71,18.83c-.09.11.09.23.09.26-.04.19-.14.05-.19.08-.06.03-.12.15-.19.19,0,.12-.25.13-.31.06,0-.01-.01-.02.02-.07.12-.15.43-.35.58-.52Z"/>
      <path class="st4" d="M10.76,14.22s.01.21,0,.23c-.02.06-.1.1-.11.12-.06.02-.13,0-.18,0-.2-.17.14-.06.12-.31,0-.11-.11-.12-.1-.22l.26.19Z"/>
      <path class="st4" d="M8.11,19.41c.06-.05.29-.05.31-.06,0,.02,0,.04.02.05.08.15-.04.53-.24.42-.01-.21-.16-.21-.09-.42Z"/>
      <path class="st4" d="M8.19,19.83l.12-.09.11-.33s.05.07.09.09c0,.08,0,.14.08.18-.04.05-.08.11-.13.16-.02.02-.14.1-.15.1,0,0-.16-.04-.16-.04,0-.02.04-.06.04-.07Z"/>
      <path class="st4" d="M8.25,17.37s.07.05.1.06c-.02.03,0,.16-.06.15l-.23-.13s.17-.08.18-.08Z"/>
      <path class="st4" d="M8.66,19.59c.12-.12.21-.09.1.06-.05.02-.05.11-.16.05.02-.03.04-.08.06-.1Z"/>
      <path class="st4" d="M8.08,17.18s.09-.02.11-.03v.09s-.05.1-.15.06c-.05-.02.1-.07.04-.12Z"/>
      <path class="st4" d="M10.75,15.23s-.03-.08.02-.12c.08.02.05.08.07.13h-.09Z"/>
      <path class="st3" d="M3.75,13.81c.06.14.07.13.08.27.15.23.25.66.29.95-.09.07-.09-.08-.1-.12-.06-.27-.19-.59-.2-.83-.11-.17-.06-.11-.08-.27Z"/>
      <path class="st3" d="M3.63,13.37c.03.14.1.22.12.44-.05-.12-.19-.27-.12-.44Z"/>
      <path class="st3" d="M3.56,12.92c.08.12.03.3.05.4l-.13-.35s.07-.04.07-.05Z"/>
      <path class="st3" d="M2.75,14.35s.37-.12.39-.12c.06,0,.1.01.05.07-.17-.02-.3.15-.46.08,0-.01.01-.03.02-.03Z"/>
      <path class="st3" d="M3.25,13.3c-.07.11-.12.29-.23.33.05-.11.13-.29.23-.33Z"/>
      <path class="st3" d="M2.96,13.73s-.06.17-.1.26c-.04-.09.07-.18.1-.26Z"/>
      <path class="st3" d="M3.3,15.59s.14-.14.16-.05-.14.05-.16.05Z"/>
      <path class="st3" d="M3.3,15.59s-.14.14-.16.05.14-.05.16-.05Z"/>
      <path class="st3" d="M4.61,12.04s.1-.08.15-.11c.34-.14.56-.26.95-.37.1.09.16.31.12.44-.34.19-.27.25-.7.34-.08.05-.18.09-.29.11-.17.09-.18-.2-.18-.33,0-.02-.03-.06-.05-.07Z"/>
      <path class="st3" d="M4.35,13.64s-.01.08-.02.12c-.08.23-.05.34.09.33.04.03.1.05.14.08.02.02.05.11.12.16.27.18.22-.04.34-.15.05-.05.15.01.23-.01.07-.02.24-.16.27-.24.02,0,.06,0,.09,0-.06.06,0,.07,0,.09.26.08-.22.28-.34.31l-.09-.04c-.17.11-.11.09-.31.16-.04.01-.07.1-.14.09-.11-.02-.17-.19-.23-.22-.02,0-.05.05-.09.04s-.27-.09-.27-.11c0,0,.04-.06.04-.1-.02-.24-.22-.32.17-.52Z"/>
      <path class="st3" d="M5.18,14.3s.27-.15.28-.15c.04,0,.11.05.17.01s-.01-.09-.02-.13l.08.02c-.01-.06-.02-.09-.07-.11.04,0,.07-.06.15-.04.11.02.42.15.44.28.02.18-.23.08-.31.1-.06-.1-.17-.07-.33.09-.07.03-.24.13-.33.18l-.04-.25Z"/>
      <path class="st3" d="M3.73,12.69c.24,0,.48-.15.73-.19.01.14-.21.11-.34.15-.11.04-.21.09-.32.13-.04.01-.11.12-.11-.02.02-.02.02-.05.04-.07Z"/>
      <path class="st3" d="M4.66,12.11c.07.14.04.25.18.33.09-.11.18-.09.29-.11-.02.02,0,.05.02.05-.08.03-.25.09-.31.06-.02.02-.05.08-.06.1-.04-.03-.1-.04-.13-.08-.01-.03-.05-.32,0-.36Z"/>
      <path class="st3" d="M4.79,12.55c.15.11-.02.3-.04.11,0-.05.03-.08.04-.11Z"/>
      <path class="st4" d="M10.35,13.48c.06.14.07.34.12.44,0,.03-.07.05-.07.05-.07.09-.24-.07-.12-.11.18-.18-.2-.3.07-.37Z"/>
      <path class="st4" d="M9.53,13.06c.02-.11.32.04.35.06,0,0,.06.19.02.19-.07.01-.18-.24-.3-.12-.02-.02-.06-.02-.07-.04,0,0,.01-.08,0-.09Z"/>
      <path class="st4" d="M9.81,13.46c.14-.15.25-.05.39.04-.13.12-.27-.06-.38.02,0-.01,0-.04-.02-.05Z"/>
      <path class="st4" d="M10.28,13.86s-.05.11.12.11c0,.01.01.09,0,.09-.16-.07-.29-.14-.27-.34.07.03.11.07.16.13Z"/>
      <path class="st3" d="M2.85,16.63s.04.03.02.05c.04.14.08.11.1.15.12,0,.13.04.03.11.08.02-.01.11-.05.11-.01,0,.22-.15.25-.13-.03-.03-.02-.04.02-.03.02.03.04.05.05.07-.12.14.12.22-.07.3-.15.06-.23-.18-.41-.06-.04-.08.03-.12.04-.21,0-.06-.04-.14-.05-.21,0,0,.02-.03.02-.07,0-.03-.13-.07.06-.07Z"/>
      <path class="st3" d="M2.85,16.63c0-.05.02-.11.02-.17,0-.14-.17-.42.13-.35-.15.19.11.28,0,.55-.03.08-.07-.01-.13.02,0-.02-.01-.04-.02-.05Z"/>
      <path class="st3" d="M2.53,16.54c.17-.06.02-.31.21-.3l-.07.37-.14-.08Z"/>
      <path class="st3" d="M2.74,16.75l-.05.25c-.09-.03-.06-.13-.12-.2,0-.01.01-.03.02-.03.05-.03.08-.05.14-.01Z"/>
      <path class="st3" d="M2.54,14.97c.15.05.11.14-.03.17,0-.09.15-.07,0-.13,0-.01.02-.02.02-.03Z"/>
      <path class="st3" d="M2.54,15.71s.07.05.1.06c-.03.02-.19.12-.18.08.02-.03.07-.14.08-.14Z"/>
      <path class="st3" d="M4.12,18.63c-.05-.02-.1-.07-.15-.09-.02,0-.12.12-.13.02-.03-.2.4-.16.28.07Z"/>
      <path class="st4" d="M6.81,20.07s.02.15.05.16l.17-.13h-.16c.1-.19.39-.3.51-.04.12-.1-.21-.2-.08-.27.03-.02.36.14.33.23.06.02.05.05-.04.07-.21.06-.42.17-.65.17l-.23.07c-.24,0-.08-.24.1-.26Z"/>
      <path class="st4" d="M7.63,20.02c.05-.03.17-.05.22-.15-.27-.04-.14-.34.09-.32l-.1.18s.59.07.07.2c.12.13,0,.06-.08.08-.04.02-.07.06-.1.07-.04.01-.11,0-.14.01.02-.02.03-.06.04-.07Z"/>
      <path class="st3" d="M2.81,17.43v-.18c.06.31.4,0,.49.09.02.02.03.11,0,.13-.02,0-.21-.03-.24.1.42.02.31.17.43.43.02.04.06.07.07.08.05.11.03.11.05.16l.03.11c.04.05.04.09.07.13-.32.02-.43-.69-.57-.74-.05-.02-.03.16-.2-.11-.04-.06-.06-.15-.12-.2Z"/>
      <path class="st3" d="M3.17,16.71s.09.02.05.16c0,.01-.01.02-.02.03-.09.06-.16.07-.2.03,0,0-.03-.1-.03-.11.04-.09.11-.13.2-.12Z"/>
      <path class="st3" d="M3.59,18.25s.11.03.03.11c-.02-.02-.08-.04-.1-.06l.03-.05h.04Z"/>
      <path class="st4" d="M7.73,17.31c.12.07.33.2.27.34-.16-.02-.08-.06-.15-.12-.06-.04-.16-.05-.21-.14l.08.18-.28-.16c.15-.05.11-.22.29-.11Z"/>
      <path class="st4" d="M10.61,14.74c.45.12,0,.32-.04.16,0,0,.06-.11.04-.16Z"/>
      <path class="st3" d="M5.56,14.37l-.07-.13c.15.06.24-.02.24-.19.05.05.23.13.15.22-.04,0-.31.08-.33.09Z"/>
      <path class="st3" d="M5.97,11.51c.12-.03.28-.1.4-.14.07.03.11,0,.16-.05l.03.02s.02.09-.02.12c.04.03.08-.03.11-.03.09-.16.25.04.09.09-.13.07-.25.08-.35.22-.13.1-.17-.03-.24-.14-.05.04-.02.09-.02.12-.11.14-.16-.13-.15-.22Z"/>
      <path class="st3" d="M5.97,11.51c.11.06,0,.19.15.22-.03.15-.02.15-.19.17.1-.17,0-.25-.05-.4.02,0,.07.01.09,0Z"/>
      <path class="st3" d="M6.38,11.37c.05-.02.11-.02.16-.05-.05.27-.1.39-.16.05Z"/>
      <path class="st3" d="M6.66,11.44l.06-.15.14.2c-.02.07-.1.04-.12.05l.06-.11s-.12,0-.14.01Z"/>
      <path class="st3" d="M4.33,13.77c.06.07-.02.25-.01.27,0,0,.05.02.1.06-.19.14-.2-.15-.16-.26.01-.04.07-.06.07-.07Z"/>
      <path class="st3" d="M5.27,12.27c-.11.04-.09-.37.05-.29.04.02-.04.29-.05.29Z"/>
      <path class="st3" d="M3,16.94c.08,0,.13-.09.2-.03-.06.11-.16.1-.26.18-.03-.04.05-.11.06-.15Z"/>
    </g>
  </g>
</svg>